<?xml version="1.0" encoding="utf-8"?>
<!-- Generator: Adobe Illustrator 24.0.1, SVG Export Plug-In . SVG Version: 6.00 Build 0)  -->
<svg version="1.1" id="圖層_1" xmlns="http://www.w3.org/2000/svg" xmlns:xlink="http://www.w3.org/1999/xlink" x="0px" y="0px"
	 viewBox="0 0 244.4 55.8" style="enable-background:new 0 0 244.4 55.8;" xml:space="preserve">
<style type="text/css">
	.st0{fill:url(#SVGID_1_);}
	.st1{fill:url(#SVGID_2_);}
	.st2{fill:url(#SVGID_3_);}
	.st3{fill:#FFFFFF;}
	.st4{fill:url(#SVGID_4_);}
	.st5{fill:url(#SVGID_5_);}
	.st6{fill:#231815;}
</style>
<title>3.橫式中英文全名</title>
<linearGradient id="SVGID_1_" gradientUnits="userSpaceOnUse" x1="2330.125" y1="2282" x2="2330.125" y2="2282" gradientTransform="matrix(8.000000e-02 0 0 5.000000e-02 -158.53 -86.22)">
	<stop  offset="0" style="stop-color:#FFFFFF"/>
	<stop  offset="1" style="stop-color:#AC2025"/>
</linearGradient>
<polygon class="st0" points="27.9,27.9 27.9,27.9 27.9,27.9 "/>
<linearGradient id="SVGID_2_" gradientUnits="userSpaceOnUse" x1="3582.0066" y1="-1652.0001" x2="2858.3066" y2="-1652.0001" gradientTransform="matrix(6.000000e-02 0 0 -6.000000e-02 -166.88 -57.31)">
	<stop  offset="0" style="stop-color:#FFFFFF"/>
	<stop  offset="0.15" style="stop-color:#E5D9BB"/>
	<stop  offset="0.4" style="stop-color:#BB9C4C"/>
	<stop  offset="0.51" style="stop-color:#AA8420"/>
	<stop  offset="0.64" style="stop-color:#A68021"/>
	<stop  offset="0.78" style="stop-color:#997425"/>
	<stop  offset="0.92" style="stop-color:#83612C"/>
	<stop  offset="1" style="stop-color:#745330"/>
</linearGradient>
<path class="st1" d="M48.2,40.5c-5.1,3.6-12.3,5.9-20.4,5.9s-15.3-2.2-20.4-5.9C2.9,37.2,0,32.8,0,27.9C0,43,12,55.3,27.1,55.7h1.5
	c4.6-0.1,9-1.3,13-3.6c4.1-2.5,6.7-6.2,6.7-10.3C48.3,41.4,48.3,41,48.2,40.5z"/>
<linearGradient id="SVGID_3_" gradientUnits="userSpaceOnUse" x1="3170.4119" y1="-1810.6558" x2="2877.1218" y2="-1119.6959" gradientTransform="matrix(6.000000e-02 0 0 -6.000000e-02 -166.88 -57.31)">
	<stop  offset="0" style="stop-color:#FFFFFF"/>
	<stop  offset="3.000000e-02" style="stop-color:#F9F6EE"/>
	<stop  offset="0.16" style="stop-color:#DDCEA6"/>
	<stop  offset="0.28" style="stop-color:#C7AE6C"/>
	<stop  offset="0.39" style="stop-color:#B79743"/>
	<stop  offset="0.47" style="stop-color:#AE8929"/>
	<stop  offset="0.52" style="stop-color:#AA8420"/>
	<stop  offset="0.75" style="stop-color:#8E6A28"/>
	<stop  offset="1" style="stop-color:#745330"/>
</linearGradient>
<path class="st2" d="M7.5,15.2c-0.1-0.4-0.1-0.8-0.1-1.2c0-4.1,2.6-7.8,6.7-10.3C5.4,8.6,0,17.8,0,27.9c0,4.9,2.9,9.4,7.5,12.7
	c5.1,3.6,12.3,5.9,20.4,5.9V27.9C17.2,27.9,8.4,22.3,7.5,15.2z"/>
<path class="st3" d="M48.2,40.5c-5.1,3.6-12.3,5.9-20.4,5.9V27.9l0,0C38.6,27.9,47.3,33.4,48.2,40.5z"/>
<path class="st3" d="M7.5,15.2c5.1-3.6,12.3-5.9,20.4-5.9v18.6C17.2,27.9,8.4,22.3,7.5,15.2z"/>
<linearGradient id="SVGID_4_" gradientUnits="userSpaceOnUse" x1="-2912.0867" y1="1717.7501" x2="-3635.7866" y2="1717.7501" gradientTransform="matrix(-6.000000e-02 0 0 6.000000e-02 -168.16 -89.12)">
	<stop  offset="0" style="stop-color:#FFFFFF"/>
	<stop  offset="0.15" style="stop-color:#E5D9BB"/>
	<stop  offset="0.4" style="stop-color:#BB9C4C"/>
	<stop  offset="0.51" style="stop-color:#AA8420"/>
	<stop  offset="0.64" style="stop-color:#A68021"/>
	<stop  offset="0.78" style="stop-color:#997425"/>
	<stop  offset="0.92" style="stop-color:#83612C"/>
	<stop  offset="1" style="stop-color:#745330"/>
</linearGradient>
<path class="st4" d="M7.5,15.2c5.1-3.6,12.3-5.9,20.4-5.9s15.3,2.2,20.4,5.9c4.7,3.3,7.5,7.8,7.5,12.7c0-15.1-12-27.5-27.1-27.9
	h-1.5c-4.6,0.1-9,1.3-13,3.6C10,6.2,7.4,9.8,7.4,13.9C7.4,14.4,7.4,14.8,7.5,15.2z"/>
<linearGradient id="SVGID_5_" gradientUnits="userSpaceOnUse" x1="-3351.7388" y1="1580.0283" x2="-3645.0188" y2="2270.9385" gradientTransform="matrix(-6.000000e-02 0 0 6.000000e-02 -168.16 -89.12)">
	<stop  offset="0" style="stop-color:#FFFFFF"/>
	<stop  offset="3.000000e-02" style="stop-color:#F9F6EE"/>
	<stop  offset="0.16" style="stop-color:#DDCEA6"/>
	<stop  offset="0.28" style="stop-color:#C7AE6C"/>
	<stop  offset="0.39" style="stop-color:#B79743"/>
	<stop  offset="0.47" style="stop-color:#AE8929"/>
	<stop  offset="0.52" style="stop-color:#AA8420"/>
	<stop  offset="0.75" style="stop-color:#8E6A28"/>
	<stop  offset="1" style="stop-color:#745330"/>
</linearGradient>
<path class="st5" d="M48.2,40.5c0.1,0.4,0.1,0.8,0.1,1.2c0,4.1-2.6,7.8-6.7,10.3c8.7-4.9,14.1-14.2,14.1-24.2
	c0-4.9-2.8-9.4-7.5-12.7c-5.1-3.7-12.3-5.9-20.4-5.9v18.6C38.6,27.9,47.3,33.4,48.2,40.5z"/>
<path class="st6" d="M117.9,27v0.8h-1.6V11.6c0-0.3,0.2-0.5,0.4-0.5c0,0,0.1,0,0.1,0h15c0.4,0,0.6,0.2,0.6,0.5v16.2h-1.6V27H117.9z
	 M128.9,12.5l0.4,1.3h0.9v1.4h-3.5c0.2,1.5,0.4,3,0.8,4.5c0.5-1.2,0.9-2.4,1.2-3.6l1.4,0.4c-0.4,1.8-1.1,3.4-2,5
	c0,0-0.1,0.1-0.1,0.1c0.2,0.5,0.3,0.9,0.5,1.3s0.3,0.6,0.3,0.6s0.2-0.1,0.2-0.4c0.1-0.7,0.1-1.3,0-2l1.4,0.4c0,1.1-0.2,2.2-0.5,3.2
	c-0.1,0.2-0.3,0.4-0.5,0.5c-0.2,0.1-0.3,0.1-0.5,0.1c-0.4-0.1-0.8-0.3-1-0.7c-0.3-0.5-0.6-1.1-0.8-1.7c-0.6,0.9-1.3,1.7-2,2.4
	l-1.2-0.9l1-1c-2,0.5-4,0.7-6,0.8l-0.3-1.5c2.2-0.1,4.3-0.4,6.4-0.9l0.3,1.3c0.5-0.6,1-1.2,1.3-1.7c-0.6-2-1-4.1-1.2-6.2h-6.6v-1.5
	h6.4c0-0.4-0.1-0.9-0.1-1.3h-6.9c-0.2,0-0.2,0.1-0.2,0.2v12.8h12.9V12.8c0-0.1-0.1-0.2-0.2-0.2L128.9,12.5z M124.7,21.2
	c0,0.1-0.1,0.2-0.2,0.2c0,0,0,0,0,0h-5.6c-0.1,0-0.2-0.1-0.2-0.2c0,0,0,0,0,0v-4.6c0-0.1,0-0.2,0.1-0.2c0,0,0,0,0,0h5.6
	c0.1,0,0.2,0.1,0.2,0.2V21.2z M123.2,17.7h-3c0,0-0.1,0-0.1,0.1V20c0,0,0,0.1,0.1,0.1h3c0,0,0.1,0,0.1-0.1L123.2,17.7
	C123.3,17.8,123.2,17.7,123.2,17.7L123.2,17.7z M127.8,13.8c-0.1-0.4-0.2-0.8-0.4-1.3h-0.9c0,0.4,0.1,0.8,0.1,1.3H127.8z"/>
<path class="st6" d="M147.4,18.1c-0.7,0.7-1.5,1.3-2.3,1.8l-1.1-1c0.9-0.5,1.7-1.1,2.4-1.7c-0.2-0.2-0.9-0.8-2-1.8
	c-0.1,0.1-0.3,0.3-0.5,0.4l-0.8-0.8l-0.4,1.5c-0.1,0.2-0.1,0.4,0,0.7c0.6,0.9,1,1.8,1.3,2.8c0.3,1.1,0.2,2.2-0.4,3.2
	c-0.3,0.3-0.6,0.6-1.1,0.7c-0.7,0.1-1.5,0-2.2-0.2v4.1H139V11.2c0-0.1,0-0.1,0.1-0.2c0.1,0,0.1,0,0.2,0h4l1.1,0.7l-0.9,2.9
	c0.5-0.4,0.9-0.9,1.3-1.4c0.5-0.8,0.8-1.6,1.1-2.5l1.4-0.1c-0.1,0.2-0.1,0.4-0.2,0.6h2.8l1.1,0.5c0,0.1-0.1,0.3-0.1,0.4
	c0.4,1,0.9,2,1.4,3c0.6-0.7,1.2-1.5,1.8-2.3h-2.3v-1.4h3.6l0.6,1c-0.8,1.4-1.7,2.7-2.8,3.8c0.8,0.9,1.8,1.8,2.9,2.5l-1.2,1
	c-0.6-0.5-1.3-1-1.8-1.6v1.3h-5.4V18.1z M142.1,12.4h-1.5h-0.1c0,0,0,0,0,0.1V22c0.5,0.3,1,0.5,1.6,0.4c0.2,0,0.4-0.1,0.5-0.3
	c0.1-0.2,0.2-0.4,0.2-0.7c0.1-1-0.4-2.5-1.6-4.5c0,0,0-0.1,0-0.1l1.2-4.1C142.5,12.5,142.4,12.4,142.1,12.4L142.1,12.4z M146.4,23
	l1.2,0.9c-1,1.4-2.3,2.5-3.8,3.3l-1-1.2C144.2,25.3,145.4,24.3,146.4,23z M149.4,22.2h-4.2v-1.4h10.2v1.4H151v3.9
	c0,0.6-0.3,1.2-0.8,1.5c-0.5,0.4-1.6,0.3-3.2-0.1v-1.6c1.3,0.4,2.1,0.5,2.3,0.2c0.1-0.1,0.2-0.3,0.2-0.5L149.4,22.2z M146.1,15
	c0.5,0.4,0.9,0.7,1.3,1.2c0.2-0.3,0.4-0.5,0.6-0.8c0-0.1,0.1-0.1,0.1-0.2c-0.7-0.5-1.5-0.9-2.3-1.3c-0.1,0.2-0.3,0.3-0.4,0.5
	C145.6,14.5,145.8,14.8,146.1,15L146.1,15z M147.5,13.3l1.1,0.7c0.1-0.3,0.2-0.6,0.4-0.9s0-0.6-0.1-0.6h-2.5c0,0.1-0.1,0.1-0.1,0.2
	L147.5,13.3z M147.6,17.8h4.9c-1-1.1-1.9-2.3-2.6-3.7c-0.5,1.3-1.3,2.5-2.2,3.6C147.7,17.7,147.7,17.8,147.6,17.8L147.6,17.8z
	 M151.9,24l1.2-1c1,1,1.9,2.2,2.6,3.4l-1.2,0.9C153.8,26.1,153,25,151.9,24L151.9,24z"/>
<path class="st6" d="M77.2,10.7h1.6v8.5c0,1.9-0.4,3.8-1.3,5.5c-0.5,0.7-1.1,1.3-1.8,1.8c-1,0.6-2.1,1-3.2,1.2l-1-1.5
	c1-0.1,2-0.4,2.9-0.8c1.7-0.9,2.6-2.8,2.7-5.5c-1.5,1.1-3,2.1-4.6,3l-0.8-1.5c1.9-1,3.8-2.2,5.5-3.5L77.2,10.7z M73.3,12.1
	c1.2,1.3,2.2,2.7,3,4.3l-1.3,0.9c-0.8-1.5-1.8-2.9-2.9-4.2L73.3,12.1z M82.6,10.7V25c0,0.2,0.1,0.5,0.3,0.6c0.2,0.2,0.4,0.2,0.6,0.3
	h2.7c0.2,0,0.3-0.1,0.5-0.2c0.2-0.8,0.3-1.5,0.3-2.3l1.6,0.3c-0.2,2-0.3,3-0.5,3.2c-0.3,0.4-0.7,0.6-1.1,0.7h-4.3
	c-0.4,0-0.8-0.2-1.1-0.5c-0.3-0.3-0.5-0.7-0.5-1.1V10.7L82.6,10.7z M88.1,12.5c-1.1,1.6-2.3,3.1-3.7,4.4l-1.2-1.1
	c1.3-1.3,2.6-2.8,3.6-4.3L88.1,12.5z M84.2,17.8c1.6,1,3,2.1,4.3,3.5l-1,1.2c-1.3-1.3-2.7-2.4-4.3-3.4L84.2,17.8z"/>
<path class="st6" d="M97.8,25h-2.5c-0.1,0-0.2-0.1-0.2-0.2c0,0,0,0,0,0v-3c0-0.1,0.1-0.2,0.1-0.2c0,0,0,0,0,0h13.5
	c0.1,0,0.2,0.1,0.2,0.2c0,0,0,0,0,0v3c0,0.1-0.1,0.2-0.2,0.2h-2.4l-0.5,1.2h4.6v1.4h-17v-1.4h4.8L97.8,25z M110.3,19.8v1.3H93.7
	v-1.3H110.3z M103.4,16.9v-1.2h1.6v-0.9h-1.6v-1.2h1.6v-1h-1.6v-1.1h1.7v-1h1.3v1h1.6v1.1h-1.6v1h1.5v1.1h-1.5v0.9h1.6v1.2h-1.6v0.9
	h2c0.1,0,0.2-0.1,0.2-0.2c0,0,0,0,0-0.1v-6.7h1.4v7.6c0,0.3-0.2,0.6-0.5,0.6c0,0-0.1,0-0.1,0H94.6c-0.3,0-0.6-0.2-0.6-0.5
	c0,0,0-0.1,0-0.1v-7.6h1.4v6.7c0,0.2,0.1,0.2,0.2,0.2h2v-0.9H96v-1.2h1.6v-1h-1.6v-1.1h1.6v-0.9H96v-1.2h1.6v-1h1.3v1h1.5v1.1h-1.5
	v0.9h1.5v1.1h-1.5v1h1.5v1.2h-1.5v0.9h2.3v-7.2h1.4v7.2h2.4v-0.9L103.4,16.9z M96.5,22.9C96.5,22.9,96.5,22.9,96.5,22.9l-0.1,0.8
	l0.1,0.1h10.9l0.1-0.1v-0.8l-0.1-0.1H96.5z M104.3,26.2l0.5-1l0.1-0.2h-5.6l0.5,1.2L104.3,26.2z"/>
<path class="st6" d="M173.8,26c0.7,0.2,1.2,0.3,1.4,0.1c0.3-0.2,0.4-0.4,0.4-0.7v-5.2h-4.5c-0.4,0-0.7-0.2-0.7-0.6c0,0,0-0.1,0-0.1
	v-2.9h-2.2l-0.1,0.9c-0.5,1.4-1.8,2.6-4,3.5l-0.9-1.4c0.7-0.2,1.4-0.5,2-0.8c0.8-0.4,1.4-1.3,1.5-2.2h-3.5c-0.1,0-0.1,0-0.1,0.1
	c0,0,0,0,0,0v11.1h-1.6V15.5c0-0.2,0.1-0.3,0.3-0.4c0,0,0.1,0,0.1,0h4l-0.8-1.8h-4v-1.5h7.6v-1.4h1.6v1.4h7.5v1.5h-4.1l-0.4,1
	l-0.3,0.8h3.9c0.3,0,0.4,0.1,0.4,0.4v10.5c0,0.6-0.3,1.1-0.8,1.5c-0.6,0.4-1.6,0.4-3,0.1v-1.6H165c-0.1,0-0.2-0.1-0.2-0.2
	c0,0,0,0,0-0.1v-4.4c0-0.1,0.1-0.2,0.2-0.2c0,0,0,0,0.1,0h8.8c0.1,0,0.2,0.1,0.2,0.2c0,0,0,0,0,0v4.4C174,26,174,26,173.8,26
	C173.8,26,173.8,26,173.8,26z M166.3,22.6C166.3,22.6,166.2,22.6,166.3,22.6v1.9c0,0,0,0.1,0,0.1h6l0.1-0.1v-1.8c0,0,0-0.1,0-0.1
	c0,0,0,0,0,0H166.3z M171.2,15.2l0.7-1.8h-5.2l0.7,1.8H171.2z M175.6,18.8v-2c0-0.1-0.1-0.1-0.1-0.1c0,0,0,0,0,0h-3.6v1.7
	c0,0.2,0.1,0.4,0.3,0.4c0,0,0.1,0,0.1,0L175.6,18.8z"/>
<path class="st6" d="M192.5,27.8h-1.5v-3.7c-2.2,1.4-4.7,2.4-7.2,2.8l-0.6-1.5c2.6-0.4,5.1-1.3,7.3-2.6h-6.8v-1.4h7.3v-1h-6.4V19
	h6.4v-1.1h-6.9v-1.3h4.1c-0.2-0.6-0.5-1.1-0.7-1.7h-4v-1.4h3.2c-0.3-0.7-0.7-1.3-1.1-1.9l1.2-0.8c0.5,0.7,1,1.5,1.3,2.3l-0.8,0.4
	h2.1v-2.9h1.4v2.9h1.7v-2.9h1.4v2.9h1.8l-0.6-0.4c0.6-0.7,1.1-1.5,1.5-2.3l1.2,0.8c-0.4,0.7-0.8,1.4-1.3,2h3.1v1.4h-4.2l-0.6,1.7
	h4.3v1.3h-6.8V19h6.3v1.3h-6.3v1h7.3v1.4h-6.5c2.1,1.4,4.5,2.4,7.1,2.8l-0.8,1.4c-2.5-0.6-4.9-1.6-7.1-3.1L192.5,27.8z M193.4,16.6
	l0.7-1.7h-5l0.7,1.7H193.4z"/>
<path class="st6" d="M206.8,14.9l-1.3-1c1.6-0.7,2.9-1.8,3.9-3.2l1.4,0.1l-0.1,0.3c0.8,0.6,1.7,1.2,2.6,1.8l-1.1,1.2
	c-0.8-0.6-1.5-1.2-2.2-1.8C209.1,13.3,208,14.2,206.8,14.9z M208.6,19.9H206v-1.4h2.6v-2h-2.1v-1.4h5.8v1.4h-2.2v2h2.7v1.4h-2.7v5.3
	l2.6-0.6l0.2,1.5c-3.3,0.7-5.7,1.2-7.1,1.3l-0.1-1.5l2.9-0.4V19.9z M207.3,20.9c0.3,1.3,0.4,2.5,0.5,3.8l-1.4,0.1
	c-0.1-1.3-0.2-2.5-0.5-3.7L207.3,20.9z M212.7,21.1c-0.2,1.1-0.4,2.1-0.6,3l-1.3-0.4c0.3-0.9,0.5-1.9,0.6-2.9L212.7,21.1z
	 M221.6,20.4l0.8,1.2c-0.9,0.7-2,1.3-3,1.9c0.9,1.3,2.1,2.5,3.4,3.4l-1.3,1c-0.9-0.6-1.6-1.3-2.3-2.1c-1.5-1.8-2.3-4-2.3-6.3h-1.6
	v6.3c0.9-0.2,1.8-0.5,2.7-0.9l0.4,1.5c-1.8,0.7-3.7,1.2-5.6,1.5l-0.4-1.5l1.3-0.2V11.4c0-0.2,0.1-0.4,0.3-0.4c0,0,0.1,0,0.1,0h7.1
	c0.2,0,0.4,0.1,0.4,0.3c0,0,0,0.1,0,0.1V19c0,0.2-0.1,0.5-0.4,0.5c0,0-0.1,0-0.1,0h-2.9c0,0.9,0.2,1.8,0.4,2.7
	C219.8,21.7,220.7,21.1,221.6,20.4L221.6,20.4z M220.3,14.5v-1.8c0-0.2-0.1-0.3-0.3-0.3c0,0,0,0-0.1,0h-4.2c-0.2,0-0.4,0.1-0.4,0.4
	v1.8H220.3z M215.3,16V18h4.7c0.2,0,0.2-0.1,0.2-0.2V16L215.3,16z"/>
<path class="st6" d="M228.2,21.7l-1.3-1c1.8-1.4,3.2-3.3,4.1-5.4l1.4,0.7c-0.4,0.9-0.9,1.7-1.4,2.5v9.4h-1.6v-7.3L228.2,21.7z
	 M231.8,11.1c-0.7,2-1.9,3.7-3.4,5.2l-1.4-0.9c1.5-1.3,2.6-3,3.3-4.9L231.8,11.1z M233.1,17.4v-1.6h11.2v1.6h-3v8.4
	c0,0.6-0.3,1.3-0.9,1.6c-1,0.7-2.9,0.6-5.5-0.2v-1.7c0.9,0.3,1.8,0.5,2.8,0.7c0.6,0.1,1.2,0,1.8-0.3c0.1-0.1,0.2-0.3,0.2-0.5v-8
	L233.1,17.4z M243.6,11.4V13h-9.9v-1.6L243.6,11.4z"/>
<path class="st6" d="M72.5,33.7h1.7l2.3,6.6l0,0l2.3-6.6h1.6v8.1h-1v-6.7l0,0l-2.3,6.7h-1.2l-2.3-6.7l0,0v6.7h-1L72.5,33.7z"/>
<path class="st6" d="M85.9,41.8C85.5,41.9,85,42,84.5,42c-1.7,0-2.8-1-2.8-3.2c0-2.4,1.6-2.7,2.3-2.7c1.4,0,2,0.9,2,2.2v0.3h-3.2
	c0,1,0.5,2.5,2,2.5c0.4,0,0.7-0.1,1.1-0.2L85.9,41.8z M85,37.9c0-0.6-0.4-1-1-1c-0.6,0-1.1,0.4-1.1,1H85z"/>
<path class="st6" d="M91.7,42c0,1.6-0.9,2.3-2.6,2.3c-0.6,0-1.2-0.1-1.7-0.2v-1.1c0.5,0.3,1,0.4,1.6,0.5c1.6,0,1.6-1.1,1.6-1.8v-0.9
	l0,0c-0.3,0.6-0.9,1-1.5,1c-1.5,0-1.9-1.4-1.9-2.8s0.6-2.9,2-2.9c0.6,0,1.2,0.3,1.5,0.9l0,0v-0.8h1.1L91.7,42z M89.4,41
	c0.9,0,1.2-1.2,1.2-2.1s-0.3-2-1.2-2s-1.1,1.2-1.1,2.1S88.4,41,89.4,41L89.4,41z"/>
<path class="st6" d="M96,41.1L96,41.1c-0.3,0.5-0.8,0.8-1.4,0.8c-0.8,0.1-1.5-0.5-1.6-1.2c0-0.1,0-0.2,0-0.3c0-1.5,1.6-1.8,3-1.8v-1
	c0-0.4-0.4-0.8-0.8-0.7c-0.4,0-0.8,0.3-0.9,0.7c0,0,0,0.1,0,0.1h-1.1c0-0.9,0.5-1.7,2.1-1.7c0.9-0.1,1.7,0.5,1.8,1.4
	c0,0.2,0,0.3,0,0.5v3.9H96V41.1z M95.8,39.3c-0.8,0-1.7,0.4-1.7,1.1c0,0.4,0.2,0.7,0.6,0.7c0,0,0,0,0,0c0.7-0.1,1.3-0.7,1.3-1.5
	v-0.3H95.8z"/>
<path class="st6" d="M101.5,33.7h1.2v8.1h-1.2V33.7z"/>
<path class="st6" d="M104.4,36.2h1v1.2l0,0c0.2-0.8,1-1.3,1.8-1.3c1.3,0,1.5,1.2,1.5,1.8v3.9h-1v-3c0-1,0-1.6-0.8-1.6
	s-1.5,1.1-1.5,2.2v2.4h-1V36.2z"/>
<path class="st6" d="M113.1,41.9c-0.3,0.1-0.6,0.1-0.8,0.1c-1.3,0-1.7-0.6-1.7-1.4v-3.5h-1v-0.8h1v-1.3l1.1-0.7v2h1.5v0.8h-1.5v3
	c0,0.5,0.1,1.1,0.9,1.1c0.2,0,0.4,0,0.6-0.1L113.1,41.9z"/>
<path class="st6" d="M118,41.8c-0.5,0.1-0.9,0.2-1.4,0.2c-1.7,0-2.8-1-2.8-3.2c0-2.4,1.6-2.7,2.3-2.7c1.3,0,2,0.9,2,2.2v0.3h-3.2
	c0,1,0.5,2.5,2,2.5c0.4,0,0.7-0.1,1.1-0.2L118,41.8z M117.1,37.9c0-0.6-0.4-1-1-1c-0.6,0-1.1,0.4-1.1,1H117.1z"/>
<path class="st6" d="M119.4,36.2h1v1.1l0,0c0.2-0.8,0.9-1.3,1.7-1.3v1.2c-1,0-1.7,0.5-1.7,2.2v2.4h-1V36.2z"/>
<path class="st6" d="M123.2,36.2h1.1v1.2l0,0c0.2-0.8,1-1.3,1.8-1.3c1.3,0,1.5,1.2,1.5,1.8v3.9h-1v-3c0-1,0-1.6-0.8-1.6
	s-1.5,1.2-1.5,2.3v2.3h-1.1L123.2,36.2z"/>
<path class="st6" d="M131.9,41.1L131.9,41.1c-0.3,0.5-0.8,0.9-1.4,0.8c-0.8,0.1-1.5-0.5-1.6-1.3c0-0.1,0-0.2,0-0.2
	c0-1.5,1.6-1.8,3.1-1.8v-1c0-0.4-0.4-0.8-0.9-0.7c-0.4,0-0.8,0.3-0.9,0.7c0,0,0,0.1,0,0.1h-1.1c0-0.9,0.5-1.7,2.1-1.7
	c0.9-0.1,1.7,0.5,1.8,1.4c0,0.2,0,0.3,0,0.5v3.9h-1L131.9,41.1z M131.7,39.3c-0.8,0-1.7,0.4-1.7,1.1c0,0.4,0.2,0.7,0.6,0.7
	c0,0,0,0,0,0c0.7-0.1,1.3-0.7,1.3-1.5v-0.3H131.7z"/>
<path class="st6" d="M137.5,41.9c-0.3,0.1-0.6,0.1-0.8,0.1c-1.4,0-1.7-0.6-1.7-1.4v-3.5h-1v-0.8h1v-1.3l1.1-0.7v2h1.6v0.8h-1.6v3
	c0,0.5,0.1,1.1,0.9,1.1c0.2,0,0.4,0,0.6-0.1L137.5,41.9z"/>
<path class="st6" d="M138.6,33.7h1.3v1.2h-1.3V33.7z M138.7,36.2h1v5.6h-1V36.2z"/>
<path class="st6" d="M141.2,39c0-1.8,0.8-2.9,2.5-2.9s2.5,1.1,2.5,2.9s-0.8,2.9-2.5,2.9S141.2,40.8,141.2,39z M143.7,41.1
	c1.1,0,1.3-1.2,1.3-2.1s-0.2-2.1-1.3-2.1s-1.3,1.2-1.3,2.1S142.5,41.1,143.7,41.1z"/>
<path class="st6" d="M147.4,36.2h1v1.2l0,0c0.2-0.8,1-1.3,1.8-1.3c1.3,0,1.5,1.2,1.5,1.8v3.9h-1.1v-3c0-1,0-1.6-0.8-1.6
	s-1.5,1.1-1.5,2.2v2.4h-1V36.2z"/>
<path class="st6" d="M156.1,41.1L156.1,41.1c-0.3,0.5-0.8,0.9-1.4,0.8c-0.8,0.1-1.5-0.5-1.6-1.3c0-0.1,0-0.2,0-0.2
	c0-1.5,1.6-1.8,3.1-1.8v-1c0-0.4-0.4-0.8-0.9-0.7c-0.4,0-0.8,0.3-0.9,0.7c0,0,0,0.1,0,0.1h-1.1c0-0.9,0.5-1.7,2.1-1.7
	c0.9-0.1,1.7,0.5,1.8,1.4c0,0.2,0,0.3,0,0.5v3.9h-1.1L156.1,41.1z M155.9,39.3c-0.8,0-1.7,0.4-1.7,1.1c0,0.4,0.2,0.7,0.6,0.7
	c0,0,0,0,0,0c0.7-0.1,1.3-0.7,1.3-1.5v-0.3H155.9z"/>
<path class="st6" d="M158.9,33.7h1v8.1h-1V33.7z"/>
<path class="st6" d="M169.5,41.5c-0.7,0.3-1.4,0.5-2.1,0.5c-1.8,0-3.2-1.1-3.2-4.3c0-2.1,0.7-4.1,3.1-4.1c1.3-0.2,2.4,0.7,2.6,2
	c0,0.1,0,0.2,0,0.4h-1.4c0.1-0.7-0.3-1.3-1-1.5c-0.1,0-0.2,0-0.3,0c-1.5,0-1.7,1.9-1.7,3c0,2,0.5,3.5,2.2,3.5c0.7,0,1.3-0.2,1.9-0.6
	L169.5,41.5z"/>
<path class="st6" d="M170.3,39c0-1.8,0.8-2.9,2.5-2.9s2.5,1.1,2.5,2.9s-0.8,2.9-2.5,2.9S170.3,40.8,170.3,39z M172.8,41.1
	c1.1,0,1.3-1.2,1.3-2.1s-0.1-2.1-1.3-2.1s-1.3,1.2-1.3,2.1S171.6,41.1,172.8,41.1z"/>
<path class="st6" d="M176.5,36.2h1.1v1.1l0,0c0.2-0.7,0.8-1.2,1.6-1.2c0.7,0,1.3,0.5,1.4,1.2l0,0c0.2-0.7,0.9-1.2,1.6-1.2
	c1.3,0,1.5,1.2,1.5,1.8v3.9h-1.1v-3c0-1,0-1.6-0.8-1.6s-1.2,1-1.2,2v2.6h-1.1v-3c0-1,0-1.6-0.7-1.6s-1.3,1.2-1.3,2.3v2.3h-1V36.2z"
	/>
<path class="st6" d="M185.3,36.2h1v1.1l0,0c0.2-0.7,0.8-1.2,1.6-1.2c0.7-0.1,1.4,0.4,1.5,1.1c0,0,0,0,0,0.1l0,0
	c0.2-0.7,0.9-1.2,1.6-1.2c1.3,0,1.5,1.2,1.5,1.8v3.9h-1.1v-3c0-1,0-1.6-0.8-1.6s-1.2,1-1.2,2v2.6h-1v-3c0-1,0-1.6-0.7-1.6
	s-1.3,1.1-1.3,2.2v2.4h-1L185.3,36.2z"/>
<path class="st6" d="M197.9,41.8c-0.5,0.1-0.9,0.2-1.4,0.2c-1.7,0-2.8-1-2.8-3.2c0-2.4,1.6-2.7,2.3-2.7c1.4,0,2,0.9,2,2.2v0.3h-3.2
	c0,1,0.5,2.5,2.1,2.5c0.3,0,0.7-0.1,1-0.2L197.9,41.8z M197,37.9c0-0.6-0.4-1-1-1c-0.6,0-1.1,0.4-1.1,1H197z"/>
<path class="st6" d="M199.3,36.2h1.1v1.1l0,0c0.2-0.8,0.9-1.3,1.7-1.3v1.2c-0.9,0-1.7,0.5-1.7,2.2v2.4h-1.1L199.3,36.2z"/>
<path class="st6" d="M207,41.8c-0.5,0.1-1,0.2-1.5,0.2c-2.1,0-2.7-1.7-2.7-3.1c0-1.6,0.7-2.7,2.4-2.7c1-0.1,1.9,0.6,2,1.6
	c0,0.1,0,0.3,0,0.4h-1.2c0-0.4-0.1-1.1-0.9-1.1s-1.1,0.7-1.1,1.7c-0.2,1.2,0.7,2.3,1.9,2.5c0.1,0,0.2,0,0.3,0c0.3,0,0.6,0,0.9-0.1
	V41.8z"/>
<path class="st6" d="M208.2,33.7h1.3v1.2h-1.3V33.7z M208.3,36.2h1.1v5.6h-1.1L208.3,36.2z"/>
<path class="st6" d="M213.7,41.1L213.7,41.1c-0.3,0.5-0.8,0.9-1.4,0.8c-0.8,0.1-1.5-0.5-1.6-1.3c0-0.1,0-0.2,0-0.2
	c0-1.5,1.6-1.8,3.1-1.8v-1c0-0.4-0.4-0.8-0.9-0.7c-0.4,0-0.8,0.3-0.9,0.7c0,0,0,0.1,0,0.1h-1.1c0-0.9,0.5-1.7,2.1-1.7
	c0.9-0.1,1.7,0.5,1.8,1.4c0,0.2,0,0.3,0,0.5v3.9h-1L213.7,41.1z M213.5,39.3c-0.8,0-1.7,0.4-1.7,1.1c0,0.4,0.2,0.7,0.6,0.7
	c0,0,0,0,0,0c0.7-0.1,1.3-0.7,1.3-1.5v-0.3H213.5z"/>
<path class="st6" d="M216.4,33.7h1.1v8.1h-1.1V33.7z"/>
<path class="st6" d="M222.3,33.7h2.3c1-0.1,2,0.6,2.1,1.7c0,0.1,0,0.2,0,0.3c0.1,0.8-0.5,1.6-1.2,1.9l0,0c1,0.1,1.7,1,1.6,2.1
	c0,2-1.6,2.2-2.6,2.2h-2.2V33.7z M223.4,37.1h0.7c0.5,0,1.4-0.1,1.4-1.2s-0.8-1.2-1.4-1.2h-0.7L223.4,37.1z M223.4,40.9h0.9
	c0.8,0.1,1.5-0.4,1.6-1.2c0-0.1,0-0.1,0-0.2c0-0.8-0.7-1.5-1.5-1.5c-0.1,0-0.1,0-0.2,0h-0.8V40.9z"/>
<path class="st6" d="M231.1,41.1L231.1,41.1c-0.3,0.5-0.8,0.9-1.4,0.8c-0.8,0.1-1.5-0.5-1.6-1.3c0-0.1,0-0.2,0-0.2
	c0-1.5,1.6-1.8,3-1.8v-1c0-0.4-0.4-0.8-0.9-0.7c-0.4,0-0.8,0.3-0.9,0.7c0,0,0,0.1,0,0.1h-1.1c0-0.9,0.5-1.7,2.1-1.7
	c0.9-0.1,1.7,0.5,1.8,1.4c0,0.2,0,0.3,0,0.5v3.9h-1.1L231.1,41.1z M230.9,39.3c-0.8,0-1.7,0.4-1.7,1.1c0,0.4,0.2,0.7,0.6,0.7
	c0,0,0,0,0,0c0.7-0.1,1.3-0.7,1.3-1.5v-0.3H230.9z"/>
<path class="st6" d="M233.8,36.2h1.1v1.2l0,0c0.2-0.8,1-1.3,1.8-1.3c1.3,0,1.5,1.2,1.5,1.8v3.9h-1v-3c0-1,0-1.6-0.8-1.6
	s-1.5,1.2-1.5,2.3v2.3h-1.1V36.2z"/>
<path class="st6" d="M239.8,33.7h1v4.8l2-2.2h1.3l-2.1,2.4l2.3,3.1h-1.3l-2.1-2.9l0,0v2.9h-1L239.8,33.7z"/>
</svg>
